<svg viewBox="0 0 616.58 120" xmlns="http://www.w3.org/2000/svg"><defs><style>.cls-1{fill:#b98953;}</style></defs><g data-name="Layer 2" id="Layer_2"><g data-name="Layer 1" id="Layer_1-2"><path d="M152.53,87.32c3-2.5,4.39-6.3,5-9.87.59-3.21,1.07-10.1,1.07-28.05,0-7.37-.12-17.35-.24-22.58-.12-5.7-.36-9.27-.71-13.9-1.19-.12-3.09-.24-5.35-.24-3.81,1.19-8.08,4-12.36,8.32a72,72,0,0,0-9.15,11.76l-1.55-.23c1.31-10.23,1.31-15.93,2.38-22.94q3.57-.36,8.56-.36c6.77,0,18.54.24,26.86.24s21.63-.24,27.33-.24a84.34,84.34,0,0,1,8.44.36c1.19,7.13,1.07,12.6,2.38,22.94l-1.55.23a64.75,64.75,0,0,0-9.27-11.88c-4.28-4.4-8.2-7-12.12-8.2-2,0-4.52.12-5.7.24-.24,3.44-.36,6.65-.48,13.19-.12,5.94-.24,15.09-.24,22,0,15,.24,23.89,1,29.12a20.93,20.93,0,0,0,2.62,8c1.9,2.85,5.35,5,10,6.06l-.12,1.43c-5.58-.12-16.4-.36-22.46-.36-6.66,0-17.47.24-21.75.36l-.12-1.43A20.71,20.71,0,0,0,152.53,87.32Z" class="cls-1"></path><path d="M205.44,41.68a35,35,0,0,1,17.11-4.52,30.91,30.91,0,0,1,19.73,7.13c5.95,5.11,9.16,12.48,9.16,21,0,10.1-5.71,19.14-14.74,24.37a31.38,31.38,0,0,1-14.62,4c-7.61,0-15.33-2.38-20.92-7.13A25.62,25.62,0,0,1,191.65,66,27.76,27.76,0,0,1,205.44,41.68Zm14.62-2c-6.66,1.9-10,11.88-10,23.18,0,14.73,5.11,25.91,13.2,28.4,5.82-1.42,9.51-12,9.51-23.65C232.78,52.49,227.43,40.61,220.06,39.66Z" class="cls-1"></path><path d="M254.84,80c0-2.62.6-4.87,1.43-5.71,4.4-2.13,17.35-4.87,29.6-8.2V63.31A40.52,40.52,0,0,0,285,55c-1.07-4.87-3.92-8.44-10.34-8.44a19.46,19.46,0,0,0-3.8.48c.24,2,1.19,5.94,1.19,8.56a10.74,10.74,0,0,1-.83,4.75,5.84,5.84,0,0,1-5.35,2.85c-4.4,0-8.32-2.61-8.32-6.3,0-3.33,3.68-6.53,11.17-10.69,1.67-1.31,3.57-2.74,5.71-4.17,4.75-3.09,8.67-4.75,13.66-4.75,4.64,0,8.8,1.66,11.42,5.71A19.14,19.14,0,0,1,302,51.66a44.51,44.51,0,0,1,.24,5.59c0,4.28-.24,8.91-.24,12.48,0,5,.48,8.2,1.66,10.46a5.2,5.2,0,0,0,4.52,3,10.13,10.13,0,0,0,2-.12l.36,1.07c-2.26,1.43-5.71,3.8-8.68,5.94-2.61,1.91-6.06,3.69-8.08,3.69-2.38,0-5.82-3.45-7.25-8.44-4.52,4.16-10,8.56-16.88,8.56C260.91,93.86,254.84,87.91,254.84,80Zm31.26,3.21a22.17,22.17,0,0,1-.47-5.23c0-2.26.24-6.42.24-9.51l-2.74.6c-8.44,1.9-11.41,4.16-11.41,8.08,0,5.23,4,8.08,8.32,8.08A9.52,9.52,0,0,0,286.1,83.16Z" class="cls-1"></path><path d="M335.57,91.36c3.92-.83,7.25-3.45,7.25-8.08a5.8,5.8,0,0,0-1.9-4.52c-1.9-2.14-5.35-3.8-9.39-5.58-4.88-2.14-10-4.52-13.08-7.49a14.21,14.21,0,0,1-4.87-11.06,16.14,16.14,0,0,1,6.77-13.07,27.1,27.1,0,0,1,15.93-4.64,59.6,59.6,0,0,1,18.43,2.86c.59,3.33.59,11.64,1.06,16.87l-1.3.24c-5.71-9.27-13.55-16.16-20.21-17.59a9.06,9.06,0,0,0-6.06,8.32c0,3.69,1.54,5.83,4.87,7.73a42,42,0,0,0,7.61,3.8c4.52,2,9.51,4.28,12.48,7.13a13.91,13.91,0,0,1,4.16,10.22,14.66,14.66,0,0,1-5.94,12.25c-4.16,3.21-10,5.11-17.59,5.11s-14.74-1.19-19-3.09c-1.19-3-1.78-11.18-2.5-17.24l1.31-.24C318.34,81.85,327.72,89.58,335.57,91.36Z" class="cls-1"></path><path d="M370.76,90.53c-2.26-2.62-3.21-6.54-3.21-11.89,0-3.68.24-13.55.24-19,0-4.4,0-8.32-.12-13.08-3.33,0-6.66.12-9,.36l-.24-1.43a66.61,66.61,0,0,0,13.79-10.81,82.62,82.62,0,0,0,10.58-14l1.66.36c-.24,4.16-.48,11-.48,15.92v1.79c7.37,0,14.62,0,17.6-.12a45.16,45.16,0,0,1-1,8.08c-3.44,0-9.62-.12-16.52-.12V60.93c0,7.61,0,14.27.72,17.71.83,3.81,3.21,5.59,6.06,5.59a12.65,12.65,0,0,0,8.79-4l1.43,1.42a40.13,40.13,0,0,1-10.22,8.92,21.44,21.44,0,0,1-11.41,3.33A11.54,11.54,0,0,1,370.76,90.53Z" class="cls-1"></path><path d="M408.49,87.2c1.78-3.21,2.73-9.27,2.73-18.07,0-9.86-.6-15.21-1.78-17.71-.95-2.49-2.62-3.56-4.4-3.56a11.86,11.86,0,0,0-2.26.24l-.36-1.31c3.21-1.43,8.2-3.68,11.65-5.59,4.4-2.73,10.1-5.7,11.89-5.7A1.25,1.25,0,0,1,427,36.57a60.91,60.91,0,0,1,.47,8.79c0,3.33-.24,11.06-.24,17.59v6.9c0,5.7.24,11.17,2.14,15.33a9.7,9.7,0,0,0,6.66,6.18l-.12,1.31c-3.92-.12-12.24-.36-17.11-.36s-12.6.24-15.81.36l-.12-1.31A9.28,9.28,0,0,0,408.49,87.2Zm1.3-67.51A10.3,10.3,0,0,1,420.37,9.47a7.44,7.44,0,0,1,7.85,7.61c0,4.27-2.86,6.65-6.42,8.55-2.86,1.55-5.59,2.74-8,4.28l-1.07-.24A18.75,18.75,0,0,1,409.79,19.69Z" class="cls-1"></path><path d="M499,111.27s-3.61,1.55-10.84,4.58S475.13,120,472.4,120s-3.28-1.11-1.85-2.79c3.59-4.22,3.79-15.15,3.79-15.15.24-4,.24-12.13.24-17.24-3.69,3.45-10.58,8.92-17.47,8.92a20,20,0,0,1-14.74-7c-3.92-4.39-6.54-10.93-6.54-19.61,0-8.91,3.69-17.23,9.27-22.22a29.36,29.36,0,0,1,19.61-7.73,25.46,25.46,0,0,1,14,4c5.59-1.78,10.58-5.34,12.24-5.46a1.54,1.54,0,0,1,1.19,1.54c-.6,5-.83,8.92-1.07,14.62-.12,6.18-.24,12.95-.24,20.09V80.9c0,3.82,0,7.54.08,10.88h0c0,6.77.36,11.64,1.43,14.85.71,2.14,2.26,3.57,4.28,3.57a9.4,9.4,0,0,0,2-.24ZM474.58,81.85v-5.7c0-10.22-.24-21-1.07-29.12-1.07-4.4-4-7.61-8-7.61a7.43,7.43,0,0,0-1.91.24c-5,2.73-9.5,10.1-9.5,24.13,0,6.06,1.07,11.05,3.56,15a13.52,13.52,0,0,0,9.75,6.18A12.58,12.58,0,0,0,474.58,81.85Z" class="cls-1"></path><path d="M504.4,81.61c-.71-3.56-.71-9.38-.71-14.62,0-7.48-.12-11.76-1.08-14.85-.71-3-2.49-4.28-5-4.28a11.74,11.74,0,0,0-1.9.24l-.36-1.31c3.09-1.43,7.14-3.21,10.7-5.11,6.06-3.21,10.22-5,12.48-5a1.56,1.56,0,0,1,1.07.71c.48,1.19.71,2.85.71,6.77,0,2.14-.11,12.13-.11,18.31,0,5.94.11,11.53,1.3,15.69,1.31,4.4,4.52,5.82,8.56,5.82A16.25,16.25,0,0,0,539,80.66V68.18c0-8.79-.23-12.12-1.07-15.45-.59-2.61-2.37-4.75-5.34-4.75a4.81,4.81,0,0,0-1.31.12l-.36-1.31c2.62-.95,7.37-3.21,11.65-5.35,4-2.38,10-4.75,12.24-4.75a1.2,1.2,0,0,1,1.31,1.07c0,1.66-.36,5.7-.48,8.32-.23,4.28-.23,10.57-.23,18.54,0,6.77.47,11.65,1.54,14.85.72,2.14,2.26,3.57,4.28,3.57a9.32,9.32,0,0,0,2-.24l.36,1.31c-3.45,1.78-8,3.68-12.36,6.18-3.33,1.9-8.2,3.57-10.11,3.57a1.15,1.15,0,0,1-1.07-.72A62.92,62.92,0,0,1,539,83.28c-7,5.58-14,10.58-21,10.58C510.46,93.86,505.82,89.46,504.4,81.61Z" class="cls-1"></path><path d="M599.47,84.94c6.42,0,11.41-3.33,15.8-8.2l1.31,1c-4.28,6.42-12.48,16-24.84,16-6.06,0-11.65-1.31-16.28-4.52-7-4.64-11.17-12.6-11.17-24,0-14.62,11.05-28,27.09-28,14.27,0,21.64,10.82,23.89,21a6.54,6.54,0,0,1,.36,2,1.74,1.74,0,0,1-.59,1.31l-32.45.71v1.9C582.59,77.81,589.72,84.94,599.47,84.94ZM582.71,59.86c4.75-.12,12.48-.35,16.16-1-.35-9.15-3.09-18.54-8.2-19.25C585.92,42.15,583.18,49.05,582.71,59.86Z" class="cls-1"></path><path d="M108.8,50.63,60.14,2a6.72,6.72,0,0,0-9.51,0L2,50.63a6.72,6.72,0,0,0,0,9.51L50.63,108.8a6.72,6.72,0,0,0,9.51,0L108.8,60.14A6.72,6.72,0,0,0,108.8,50.63ZM83,45.56a2.22,2.22,0,0,0-.67,1.59V79.32a2.24,2.24,0,0,1-2.24,2.24H30.71a2.24,2.24,0,0,1-2.24-2.24V47.15a2.22,2.22,0,0,0-.67-1.59c-3.4-3.35-4.57-7.13-3.2-10.38a8.76,8.76,0,0,1,8.22-5.11c5.42,0,11.45,2.45,17,6.89.86.7,1.69,1.43,2.5,2.19a41.48,41.48,0,0,0-7.14,11.34c-3.3,8-2.51,15.28,2.14,19.85a11.58,11.58,0,0,0,16.19,0c4.65-4.57,5.43-11.81,2.14-19.85a41.48,41.48,0,0,0-7.14-11.34c.81-.76,1.64-1.49,2.5-2.19,5.52-4.44,11.55-6.89,17-6.89a8.76,8.76,0,0,1,8.22,5.11C87.54,38.43,86.37,42.21,83,45.56ZM55.38,42.41a36.79,36.79,0,0,1,6.1,9.77c3.52,8.59.79,13.07-1.14,15a7.11,7.11,0,0,1-9.91,0c-1.93-1.9-4.66-6.38-1.14-15A37,37,0,0,1,55.38,42.41ZM53.8,5.13a2.26,2.26,0,0,1,3.17,0L77.46,25.62c-6.31.14-13.13,2.9-19.29,7.86-1,.77-1.89,1.58-2.79,2.44-.89-.86-1.83-1.67-2.79-2.44-6.15-5-13-7.72-19.28-7.86ZM5.13,53.8,19.65,39.28A15.64,15.64,0,0,0,24,48.06V75.83L5.13,57A2.25,2.25,0,0,1,5.13,53.8ZM57,105.64a2.26,2.26,0,0,1-3.17,0L34.2,86H76.57ZM105.64,57,86.77,75.83V48.06a15.66,15.66,0,0,0,4.35-8.78L105.64,53.8A2.25,2.25,0,0,1,105.64,57Z" class="cls-1"></path></g></g></svg>